<?xml version="1.0" encoding="utf-8" ?>
<svg baseProfile="full" height="492" version="1.1" width="760" xmlns="http://www.w3.org/2000/svg" xmlns:ev="http://www.w3.org/2001/xml-events" xmlns:xlink="http://www.w3.org/1999/xlink"><defs /><path d="M 583 366 L 582 365 L 582 364 L 579 364 L 579 365 L 578 366 L 575 366 L 574 367 L 570 367 L 569 368 L 568 368 L 566 370 L 566 373 L 574 373 L 575 374 L 584 374 L 584 370 L 583 369 Z" fill="#367698" fill-rule="evenodd" stroke="none" /><path d="M 164 369 L 164 371 L 165 372 L 165 373 L 166 373 L 167 374 L 175 374 L 176 373 L 186 373 L 186 370 L 184 368 L 182 368 L 181 369 L 179 369 L 178 368 L 178 367 L 175 367 L 174 366 L 174 364 L 175 363 L 175 360 L 172 360 L 171 361 L 171 362 L 170 363 L 170 364 L 169 365 L 168 365 L 168 368 L 167 369 Z" fill="#367698" fill-rule="evenodd" stroke="none" /><path d="M 197 356 L 197 359 L 199 359 L 200 360 L 200 363 L 201 363 L 202 364 L 202 365 L 203 366 L 204 366 L 205 367 L 207 367 L 207 359 L 206 359 L 205 358 L 203 358 L 202 359 L 200 359 L 199 358 L 199 356 Z" fill="#367698" fill-rule="evenodd" stroke="none" /><path d="M 519 353 L 519 356 L 520 357 L 520 359 L 524 359 L 526 361 L 526 366 L 529 366 L 530 365 L 531 365 L 531 363 L 530 362 L 530 360 L 528 360 L 527 359 L 527 355 L 524 355 L 523 354 L 522 354 L 521 353 Z" fill="#367698" fill-rule="evenodd" stroke="none" /><path d="M 251 333 L 249 333 L 249 334 L 248 335 L 246 335 L 246 341 L 245 342 L 243 342 L 242 341 L 242 340 L 240 340 L 240 342 L 239 343 L 237 343 L 237 346 L 236 347 L 233 347 L 233 349 L 234 349 L 235 350 L 235 354 L 234 355 L 232 355 L 231 354 L 231 351 L 229 351 L 228 352 L 228 353 L 225 356 L 225 358 L 222 360 L 220 360 L 220 363 L 219 364 L 216 364 L 216 369 L 215 370 L 212 370 L 211 369 L 211 368 L 209 368 L 209 370 L 212 370 L 214 373 L 216 373 L 216 371 L 217 370 L 221 370 L 221 369 L 222 368 L 224 368 L 224 367 L 225 366 L 226 366 L 226 362 L 227 361 L 229 361 L 230 360 L 233 360 L 233 359 L 234 358 L 234 355 L 235 354 L 239 354 L 239 351 L 237 351 L 236 350 L 236 347 L 237 346 L 239 346 L 240 347 L 242 347 L 243 346 L 245 346 L 245 344 L 246 343 L 249 343 L 249 340 L 250 339 L 251 339 Z" fill="#367698" fill-rule="evenodd" stroke="none" /><path d="M 503 331 L 503 332 L 502 333 L 502 345 L 510 345 L 511 346 L 511 347 L 513 349 L 513 350 L 518 350 L 518 347 L 516 347 L 515 346 L 515 343 L 514 343 L 512 341 L 511 341 L 510 340 L 510 335 L 509 334 L 509 331 Z" fill="#367698" fill-rule="evenodd" stroke="none" /><path d="M 318 221 L 318 227 L 315 228 L 315 231 L 309 232 L 308 238 L 303 246 L 302 256 L 295 258 L 294 263 L 290 263 L 289 282 L 292 283 L 292 289 L 295 294 L 303 297 L 305 308 L 308 308 L 311 311 L 310 318 L 312 320 L 318 320 L 319 327 L 325 329 L 326 331 L 335 327 L 336 334 L 339 334 L 340 331 L 343 331 L 344 334 L 416 334 L 421 330 L 431 328 L 435 319 L 441 319 L 448 307 L 449 296 L 457 295 L 460 293 L 460 289 L 464 286 L 463 264 L 453 260 L 450 255 L 448 240 L 444 232 L 436 223 L 432 222 L 426 216 L 398 212 L 397 216 L 392 215 L 391 213 L 374 212 L 373 215 L 370 213 L 358 213 L 355 210 L 355 201 L 352 201 L 351 209 L 347 210 L 347 217 L 344 216 L 344 213 L 336 213 L 335 216 L 327 215 L 327 222 L 323 222 L 322 219 Z" fill="#367698" fill-rule="evenodd" stroke="none" /><path d="M 105 249 L 102 465 L 300 467 L 300 454 L 114 453 L 115 403 L 300 403 L 274 389 L 116 391 L 113 361 L 133 375 L 170 337 L 203 353 L 220 330 L 199 344 L 175 327 L 156 344 L 132 331 L 145 354 L 128 365 L 115 319 L 278 311 L 114 303 L 116 275 L 273 265 L 276 250 L 115 256 L 170 196 L 325 101 L 424 100 L 555 177 L 636 256 L 477 251 L 480 265 L 638 277 L 636 305 L 474 311 L 634 318 L 624 367 L 608 357 L 620 332 L 601 345 L 577 326 L 553 344 L 533 329 L 551 350 L 534 373 L 583 336 L 620 375 L 638 363 L 637 391 L 452 391 L 636 403 L 638 453 L 452 454 L 452 467 L 652 462 L 645 246 L 582 181 L 428 86 L 326 84 L 173 179 Z" fill="#367698" fill-rule="evenodd" stroke="none" /><path d="M 436 354 L 445 368 L 451 388 L 636 388 L 636 366 L 623 379 L 619 379 L 579 342 L 542 376 L 532 376 L 498 345 L 499 328 L 512 327 L 514 339 L 535 359 L 540 359 L 545 352 L 530 338 L 531 326 L 543 326 L 558 340 L 576 322 L 580 322 L 599 340 L 604 340 L 608 336 L 609 328 L 622 328 L 623 341 L 612 351 L 612 354 L 622 361 L 636 343 L 634 321 L 471 316 L 456 339 Z" fill="#bfe1ea" fill-rule="evenodd" stroke="none" /><path d="M 316 354 L 292 333 L 282 316 L 117 321 L 117 345 L 131 361 L 140 354 L 140 351 L 129 341 L 130 328 L 142 328 L 144 337 L 153 340 L 171 321 L 174 321 L 197 340 L 209 326 L 222 326 L 223 337 L 207 352 L 213 360 L 239 338 L 241 327 L 254 328 L 254 346 L 220 376 L 209 376 L 173 342 L 133 379 L 129 379 L 117 367 L 117 388 L 302 388 L 307 370 Z" fill="#bfe1ea" fill-rule="evenodd" stroke="none" /><path d="M 321 240 L 317 251 L 318 299 L 322 308 L 332 317 L 339 319 L 416 319 L 425 315 L 431 309 L 435 300 L 435 288 L 434 287 L 434 267 L 435 266 L 434 256 L 435 255 L 435 248 L 431 239 L 422 231 L 414 228 L 338 228 L 328 232 Z" fill="#bfe1ea" fill-rule="evenodd" stroke="none" /><path d="M 331 366 L 324 378 L 321 390 L 321 468 L 322 469 L 359 468 L 360 466 L 375 466 L 376 468 L 383 468 L 384 466 L 391 466 L 392 468 L 401 468 L 402 469 L 408 468 L 431 469 L 431 388 L 428 377 L 422 367 L 415 361 L 405 357 L 348 357 L 337 361 Z" fill="#204d6c" fill-rule="evenodd" stroke="none" /><path d="M 324 83 L 327 83 L 328 82 L 333 82 L 334 81 L 346 81 L 347 80 L 367 80 L 368 79 L 391 79 L 392 80 L 407 80 L 408 81 L 416 81 L 417 82 L 423 82 L 423 81 L 426 77 L 426 75 L 423 71 L 421 71 L 420 70 L 420 66 L 416 62 L 413 62 L 411 58 L 408 58 L 406 55 L 402 53 L 398 53 L 397 51 L 394 51 L 393 50 L 391 50 L 390 49 L 386 49 L 385 48 L 368 48 L 367 49 L 362 49 L 361 50 L 358 50 L 357 51 L 352 52 L 350 53 L 348 56 L 344 56 L 343 58 L 341 58 L 339 62 L 336 62 L 334 64 L 334 68 L 333 69 L 330 69 L 325 78 Z" fill="#204d6c" fill-rule="evenodd" stroke="none" /><path d="M 433 151 L 432 151 L 431 150 L 429 150 L 428 149 L 420 149 L 419 150 L 416 150 L 414 152 L 413 152 L 412 153 L 412 157 L 411 158 L 409 158 L 408 159 L 408 162 L 407 163 L 407 166 L 408 167 L 408 172 L 407 173 L 407 175 L 406 176 L 404 176 L 404 178 L 403 179 L 402 179 L 402 182 L 401 183 L 397 183 L 397 191 L 398 192 L 398 201 L 399 202 L 399 205 L 398 206 L 398 208 L 401 208 L 401 205 L 402 204 L 403 204 L 403 200 L 404 199 L 404 192 L 403 191 L 403 189 L 404 188 L 407 188 L 408 185 L 409 184 L 411 184 L 411 183 L 413 180 L 426 180 L 427 179 L 431 179 L 431 178 L 432 177 L 435 177 L 437 175 L 437 171 L 438 170 L 440 170 L 440 160 L 439 159 L 437 159 L 436 158 L 436 156 L 435 156 L 434 155 L 434 152 Z" fill="#306684" fill-rule="evenodd" stroke="none" /><path d="M 320 150 L 315 155 L 315 158 L 314 159 L 313 159 L 313 162 L 312 163 L 312 167 L 313 168 L 313 171 L 315 173 L 315 174 L 319 178 L 323 178 L 324 179 L 328 179 L 329 180 L 329 181 L 332 181 L 333 180 L 335 180 L 335 178 L 336 177 L 338 177 L 339 178 L 339 180 L 342 180 L 343 181 L 343 185 L 348 188 L 348 191 L 349 192 L 349 204 L 351 204 L 351 195 L 352 194 L 354 194 L 354 188 L 353 187 L 350 187 L 349 186 L 349 179 L 348 178 L 348 176 L 345 176 L 344 175 L 344 169 L 345 168 L 346 168 L 346 165 L 345 164 L 345 162 L 344 161 L 344 159 L 343 159 L 342 158 L 342 157 L 339 154 L 339 152 L 337 150 L 332 150 L 331 149 L 331 148 L 326 148 L 325 149 L 322 149 L 321 150 Z" fill="#306684" fill-rule="evenodd" stroke="none" /><path d="M 371 131 L 370 132 L 367 133 L 363 136 L 362 139 L 359 143 L 359 149 L 360 150 L 360 153 L 363 157 L 363 158 L 367 161 L 368 161 L 369 162 L 371 162 L 372 163 L 372 171 L 373 172 L 373 175 L 372 176 L 372 177 L 371 178 L 370 178 L 370 183 L 371 183 L 373 186 L 373 206 L 376 206 L 377 207 L 377 208 L 379 208 L 379 169 L 380 168 L 380 163 L 381 162 L 383 162 L 383 160 L 384 159 L 387 159 L 391 155 L 391 154 L 392 153 L 392 150 L 393 149 L 393 147 L 392 146 L 392 141 L 391 140 L 391 139 L 388 136 L 388 135 L 384 135 L 383 134 L 383 132 L 382 132 L 381 131 Z" fill="#306684" fill-rule="evenodd" stroke="none" /></svg>
